<svg width="16" height="16" viewBox="0 0 16 16" fill="none" xmlns="http://www.w3.org/2000/svg">
<path d="M9.56667 13.8487L6 12.5987L2.9 13.7987C2.78889 13.8431 2.68056 13.857 2.575 13.8404C2.46944 13.8237 2.37222 13.7876 2.28333 13.732C2.19444 13.6765 2.125 13.6015 2.075 13.507C2.025 13.4126 2 13.3043 2 13.182V3.83203C2 3.68759 2.04167 3.55981 2.125 3.4487C2.20833 3.33759 2.32222 3.25425 2.46667 3.1987L5.56667 2.1487C5.63333 2.12648 5.70278 2.10981 5.775 2.0987C5.84722 2.08759 5.92222 2.08203 6 2.08203C6.07778 2.08203 6.15278 2.08759 6.225 2.0987C6.29722 2.10981 6.36667 2.12648 6.43333 2.1487L10 3.3987L13.1 2.1987C13.2111 2.15425 13.3194 2.14036 13.425 2.15703C13.5306 2.1737 13.6278 2.20981 13.7167 2.26536C13.8056 2.32092 13.875 2.39592 13.925 2.49036C13.975 2.58481 14 2.69314 14 2.81536V12.1654C14 12.3098 13.9583 12.4376 13.875 12.5487C13.7917 12.6598 13.6778 12.7431 13.5333 12.7987L10.4333 13.8487C10.3667 13.8709 10.2972 13.8876 10.225 13.8987C10.1528 13.9098 10.0778 13.9154 10 13.9154C9.92222 13.9154 9.84722 13.9098 9.775 13.8987C9.70278 13.8876 9.63333 13.8709 9.56667 13.8487ZM9.33333 12.3654V4.56536L6.66667 3.63203V11.432L9.33333 12.3654Z" fill="#D54029"/>
</svg>
