<svg width="16" height="16" viewBox="0 0 16 16" fill="none" xmlns="http://www.w3.org/2000/svg">
<path d="M7.50065 14.1954V8.28772L2.33398 5.30055V10.5287C2.33398 10.7475 2.38698 10.9484 2.49298 11.1314C2.59898 11.3143 2.74687 11.4604 2.93665 11.5697L7.50065 14.1954ZM8.50065 14.1954L13.0647 11.5697C13.2544 11.4604 13.4023 11.3143 13.5083 11.1314C13.6143 10.9484 13.6673 10.7475 13.6673 10.5287V5.30055L8.50065 8.28772V14.1954ZM11.048 5.66339L13.1237 4.46205L8.60315 1.86339C8.41348 1.75394 8.21265 1.69922 8.00065 1.69922C7.78865 1.69922 7.58782 1.75394 7.39815 1.86339L5.93398 2.70322L11.048 5.66339ZM8.00065 7.42622L10.0482 6.24805L4.93148 3.28389L2.87382 4.46589L8.00065 7.42622Z" fill="#D54029"/>
</svg>
