<svg width="143" height="49" viewBox="0 0 143 49" fill="none" xmlns="http://www.w3.org/2000/svg">
<path d="M68.2023 10.048C67.5783 10.048 67.0183 9.904 66.5223 9.616C66.0263 9.32 65.6343 8.92 65.3463 8.416C65.0583 7.912 64.9103 7.344 64.9023 6.712V1.24C64.9023 1.056 64.9583 0.908 65.0703 0.796C65.1903 0.684 65.3383 0.628 65.5143 0.628C65.6983 0.628 65.8463 0.684 65.9583 0.796C66.0703 0.908 66.1263 1.056 66.1263 1.24V4.48C66.4063 4.144 66.7423 3.88 67.1343 3.688C67.5343 3.488 67.9703 3.388 68.4423 3.388C69.0263 3.388 69.5503 3.536 70.0143 3.832C70.4783 4.12 70.8423 4.516 71.1063 5.02C71.3783 5.516 71.5143 6.08 71.5143 6.712C71.5143 7.344 71.3663 7.912 71.0703 8.416C70.7823 8.92 70.3903 9.32 69.8943 9.616C69.3983 9.904 68.8343 10.048 68.2023 10.048ZM68.2023 8.968C68.6103 8.968 68.9743 8.872 69.2943 8.68C69.6143 8.48 69.8663 8.208 70.0503 7.864C70.2423 7.52 70.3383 7.136 70.3383 6.712C70.3383 6.28 70.2423 5.896 70.0503 5.56C69.8663 5.224 69.6143 4.96 69.2943 4.768C68.9743 4.568 68.6103 4.468 68.2023 4.468C67.8023 4.468 67.4383 4.568 67.1103 4.768C66.7903 4.96 66.5383 5.224 66.3543 5.56C66.1703 5.896 66.0783 6.28 66.0783 6.712C66.0783 7.136 66.1703 7.52 66.3543 7.864C66.5383 8.208 66.7903 8.48 67.1103 8.68C67.4383 8.872 67.8023 8.968 68.2023 8.968ZM74.1525 12.88C74.0725 12.88 73.9765 12.856 73.8645 12.808C73.5125 12.648 73.4165 12.396 73.5765 12.052L77.2365 3.784C77.3965 3.448 77.6485 3.352 77.9925 3.496C78.3525 3.648 78.4525 3.9 78.2925 4.252L74.6205 12.508C74.5245 12.756 74.3685 12.88 74.1525 12.88ZM75.5685 9.736C75.4165 9.8 75.2725 9.808 75.1365 9.76C75.0085 9.704 74.9045 9.6 74.8245 9.448L72.0765 4.228C71.9965 4.076 71.9845 3.932 72.0405 3.796C72.1045 3.652 72.2125 3.548 72.3645 3.484C72.5165 3.42 72.6605 3.416 72.7965 3.472C72.9325 3.52 73.0365 3.62 73.1085 3.772L75.7365 8.992C75.8165 9.144 75.8445 9.292 75.8205 9.436C75.8045 9.572 75.7205 9.672 75.5685 9.736Z" fill="url(#paint0_linear_3524_69638)"/>
<g clip-path="url(#clip0_3524_69638)">
<path d="M20.8231 31.0391H12.0724C10.8642 31.0391 9.88477 32.0259 9.88477 33.2431C9.88477 34.4604 10.8642 35.4472 12.0724 35.4472H20.8231C22.0314 35.4472 23.0108 34.4604 23.0108 33.2431C23.0108 32.0259 22.0314 31.0391 20.8231 31.0391Z" fill="#F44E32"/>
<path d="M20.8231 31.0391H12.0724C10.8642 31.0391 9.88477 32.0259 9.88477 33.2431C9.88477 34.4604 10.8642 35.4472 12.0724 35.4472H20.8231C22.0314 35.4472 23.0108 34.4604 23.0108 33.2431C23.0108 32.0259 22.0314 31.0391 20.8231 31.0391Z" fill="url(#paint1_linear_3524_69638)" fill-opacity="0.2"/>
<path fill-rule="evenodd" clip-rule="evenodd" d="M36.9498 37.4197C36.7129 37.7544 36.4473 38.0711 36.155 38.3656C34.7641 39.7669 32.8777 40.5542 30.9107 40.5542C28.9438 40.5542 27.0573 39.7669 25.6665 38.3656C24.2756 36.9643 23.4942 35.0637 23.4942 33.082H19.1621C19.1621 35.4218 19.8497 37.69 21.1121 39.6126C21.5434 40.2698 22.0421 40.8864 22.6032 41.4518C24.8065 43.6717 27.7948 44.9188 30.9107 44.9188C34.0266 44.9188 37.015 43.6717 39.2182 41.4518C39.7794 40.8864 40.278 40.2698 40.7094 39.6126C41.163 38.922 41.5422 38.1867 41.8421 37.4197H36.9498ZM37.9787 35.3459C38.2077 34.6203 38.3273 33.8574 38.3273 33.082H42.6593C42.6593 33.8474 42.5858 34.6053 42.4425 35.3459H37.9787Z" fill="#F44E32"/>
<path fill-rule="evenodd" clip-rule="evenodd" d="M36.9498 37.4197C36.7129 37.7544 36.4473 38.0711 36.155 38.3656C34.7641 39.7669 32.8777 40.5542 30.9107 40.5542C28.9438 40.5542 27.0573 39.7669 25.6665 38.3656C24.2756 36.9643 23.4942 35.0637 23.4942 33.082H19.1621C19.1621 35.4218 19.8497 37.69 21.1121 39.6126C21.5434 40.2698 22.0421 40.8864 22.6032 41.4518C24.8065 43.6717 27.7948 44.9188 30.9107 44.9188C34.0266 44.9188 37.015 43.6717 39.2182 41.4518C39.7794 40.8864 40.278 40.2698 40.7094 39.6126C41.163 38.922 41.5422 38.1867 41.8421 37.4197H36.9498ZM37.9787 35.3459C38.2077 34.6203 38.3273 33.8574 38.3273 33.082H42.6593C42.6593 33.8474 42.5858 34.6053 42.4425 35.3459H37.9787Z" fill="url(#paint2_linear_3524_69638)" fill-opacity="0.2"/>
<mask id="mask0_3524_69638" style="mask-type:luminance" maskUnits="userSpaceOnUse" x="0" y="33" width="24" height="12">
<path d="M23.4972 33.082C23.4972 36.2213 22.2595 39.2321 20.0561 41.4518C17.8529 43.6717 14.8645 44.9188 11.7486 44.9188C8.63269 44.9188 5.64439 43.6717 3.4411 41.4518C1.2378 39.2321 4.70492e-07 36.2213 0 33.082H4.33208C4.33208 35.0637 5.11347 36.9643 6.50432 38.3656C7.8952 39.7669 9.78162 40.5542 11.7486 40.5542C13.7156 40.5542 15.602 39.7669 16.9929 38.3656C18.3837 36.9643 19.1651 35.0637 19.1651 33.082H23.4972Z" fill="white"/>
</mask>
<g mask="url(#mask0_3524_69638)">
<path d="M23.4972 33.082C23.4972 36.2213 22.2595 39.2321 20.0561 41.4518C17.8529 43.6717 14.8645 44.9188 11.7486 44.9188C8.63269 44.9188 5.64439 43.6717 3.4411 41.4518C1.2378 39.2321 4.70492e-07 36.2213 0 33.082H4.33208C4.33208 35.0637 5.11347 36.9643 6.50432 38.3656C7.8952 39.7669 9.78162 40.5542 11.7486 40.5542C13.7156 40.5542 15.602 39.7669 16.9929 38.3656C18.3837 36.9643 19.1652 35.0637 19.1652 33.082H23.4972Z" stroke="#F44E32" stroke-width="80"/>
</g>
<mask id="mask1_3524_69638" style="mask-type:luminance" maskUnits="userSpaceOnUse" x="0" y="21" width="17" height="13">
<path d="M0 33.0789C1.7064e-07 31.1124 0.486308 29.1769 1.41499 27.4472C2.34366 25.7175 3.68545 24.2482 5.31911 23.172C6.95278 22.0958 8.82684 21.4466 10.772 21.2832C12.7171 21.1197 14.672 21.447 16.4601 22.2357L14.7228 26.2339C13.5941 25.7361 12.36 25.5294 11.1321 25.6326C9.90418 25.7358 8.72115 26.1456 7.68987 26.825C6.6586 27.5043 5.81156 28.4319 5.22531 29.5238C4.63907 30.6157 4.33208 31.8375 4.33208 33.0789H0Z" fill="white"/>
</mask>
<g mask="url(#mask1_3524_69638)">
<path d="M0 33.0789C1.7064e-07 31.1124 0.486308 29.1769 1.41499 27.4472C2.34366 25.7175 3.68545 24.2482 5.31911 23.172C6.95278 22.0958 8.82684 21.4466 10.772 21.2832C12.7171 21.1197 14.672 21.447 16.4601 22.2357L14.7228 26.2339C13.5941 25.7361 12.36 25.5294 11.1321 25.6326C9.90418 25.7358 8.72115 26.1456 7.68987 26.825C6.6586 27.5043 5.81156 28.4319 5.22531 29.5238C4.63907 30.6157 4.33208 31.8375 4.33208 33.0789H0Z" stroke="#F44E32" stroke-width="80"/>
</g>
<path d="M17.6711 24.1838C17.6711 25.3921 16.6989 26.3716 15.4996 26.3716C14.3003 26.3716 13.3281 25.3921 13.3281 24.1838C13.3281 22.9756 14.3003 21.9961 15.4996 21.9961C16.6989 21.9961 17.6711 22.9756 17.6711 24.1838Z" fill="#F44E32"/>
<path fill-rule="evenodd" clip-rule="evenodd" d="M40.2861 25.9454C39.9609 25.5114 39.6044 25.0981 39.2182 24.7091C37.015 22.4893 34.0266 21.2422 30.9107 21.2422C27.7948 21.2422 24.8065 22.4893 22.6032 24.7091C22.0421 25.2745 21.5434 25.8912 21.1121 26.5483C19.8497 28.471 19.1621 30.7392 19.1621 33.0789H23.4942C23.4942 31.0972 24.2756 29.1966 25.6665 27.7953C27.0573 26.394 28.9438 25.6068 30.9107 25.6068C32.8777 25.6068 34.7641 26.394 36.155 27.7953C36.7254 28.3699 37.1932 29.0285 37.5468 29.7423L40.2861 25.9454ZM41.4532 27.8549C42.2393 29.4653 42.6593 31.2503 42.6593 33.0789H38.3273C38.3273 32.8009 38.3119 32.5244 38.2816 32.2507L41.4532 27.8549Z" fill="#F44E32"/>
<path d="M138.422 44.6586V33.4257C138.422 32.3197 138.217 31.2713 137.805 30.2804C137.393 29.2897 136.821 28.4256 136.09 27.6882C135.381 26.9278 134.534 26.3288 133.551 25.891C132.59 25.4532 131.55 25.2343 130.429 25.2343C129.308 25.2343 128.256 25.4532 127.273 25.891C126.313 26.3057 125.466 26.8933 124.734 27.6537C124.025 28.391 123.465 29.2551 123.054 30.2459C122.642 31.2367 122.436 32.2966 122.436 33.4257V44.6586H118.594V17.4922H122.436V24.6467L123.534 23.8518C125.501 22.4001 127.799 21.6743 130.429 21.6743C132.053 21.6743 133.585 21.9738 135.026 22.5729C136.467 23.172 137.713 24.0015 138.765 25.0615C139.84 26.0983 140.686 27.3311 141.304 28.7597C141.944 30.1883 142.265 31.7321 142.265 33.3911V44.6586H138.422Z" fill="#E5D7D7"/>
<path fill-rule="evenodd" clip-rule="evenodd" d="M45.7632 35.3446H36.0508L49.2215 17.0898L45.8417 29.7184H55.0271L41.6005 48.8546L45.7632 35.3446Z" fill="#FFD006"/>
<path fill-rule="evenodd" clip-rule="evenodd" d="M138.211 44.8683V33.4231C138.211 32.3443 138.011 31.3239 137.61 30.3598C137.209 29.3937 136.652 28.553 135.94 27.8357L135.938 27.8334L135.936 27.831C135.247 27.0921 134.424 26.5093 133.466 26.0825L133.464 26.0818C132.532 25.6571 131.521 25.4439 130.429 25.4439C129.336 25.4439 128.313 25.6571 127.358 26.0825L127.357 26.083L127.356 26.0834C126.421 26.4871 125.598 27.0585 124.885 27.7988C124.196 28.5163 123.65 29.3578 123.248 30.3252C122.847 31.2888 122.646 32.3207 122.646 33.4231V44.8683H118.383V17.2773H122.646V24.2302L123.409 23.6779C123.409 23.6778 123.41 23.6774 123.41 23.6774C125.415 22.1973 127.758 21.4594 130.429 21.4594C132.079 21.4594 133.639 21.764 135.106 22.3741C136.571 22.9831 137.84 23.8273 138.913 24.9072C140.007 25.9636 140.869 27.2189 141.496 28.671C142.149 30.1282 142.475 31.7016 142.475 33.3885V44.8683H138.211ZM141.304 28.7571C140.686 27.3285 139.84 26.0957 138.765 25.0589C137.713 23.9989 136.467 23.1694 135.026 22.5703C133.585 21.9712 132.053 21.6717 130.429 21.6717C127.799 21.6717 125.5 22.3975 123.534 23.8491L122.436 24.6441V17.4896H118.593V44.6561H122.436V33.4231C122.436 32.294 122.641 31.2341 123.053 30.2433C123.465 29.2525 124.025 28.3884 124.734 27.6511C125.466 26.8907 126.312 26.3031 127.273 25.8884C128.256 25.4506 129.308 25.2317 130.429 25.2317C131.55 25.2317 132.59 25.4506 133.551 25.8884C134.534 26.3262 135.38 26.9252 136.089 27.6856C136.821 28.423 137.393 29.2871 137.805 30.2778C138.216 31.2687 138.422 32.3171 138.422 33.4231V44.6561H142.264V33.3885C142.264 31.7295 141.944 30.1857 141.304 28.7571Z" fill="#E5D7D7"/>
<path d="M98.4517 44.6562V41.0962H109.876C110.722 41.0502 111.374 40.7046 111.831 40.0593C112.311 39.4143 112.551 38.6884 112.551 37.882C112.551 37.0064 112.243 36.269 111.625 35.67C111.008 35.0477 110.264 34.7367 109.395 34.7367H104.935C103.998 34.6907 103.129 34.4948 102.328 34.1491C101.528 33.8035 100.83 33.3312 100.236 32.7321C99.641 32.11 99.1722 31.3957 98.8291 30.5892C98.4861 29.7827 98.3145 28.9187 98.3145 27.997C98.3145 27.0753 98.4861 26.1997 98.8291 25.3702C99.195 24.5407 99.6754 23.8264 100.27 23.2273C100.887 22.6052 101.596 22.1213 102.397 21.7757C103.22 21.407 104.089 21.2227 105.004 21.2227H111.248V24.7826H105.004C104.158 24.8517 103.426 25.1859 102.809 25.785C102.191 26.361 101.882 27.0983 101.882 27.997C101.882 28.8726 102.18 29.6214 102.774 30.2436C103.392 30.8657 104.146 31.1768 105.038 31.1768H109.533C110.447 31.1768 111.305 31.3611 112.105 31.7298C112.929 32.0754 113.638 32.5593 114.232 33.1814C114.85 33.8035 115.33 34.5294 115.673 35.3589C116.039 36.1653 116.222 37.0179 116.222 37.9165C116.222 38.8613 116.05 39.7253 115.707 40.5088C115.387 41.2922 114.907 42.018 114.267 42.6861C113.581 43.3313 112.849 43.8269 112.071 44.1723C111.316 44.4949 110.47 44.6562 109.533 44.6562H98.4517Z" fill="#E5D7D7"/>
<path fill-rule="evenodd" clip-rule="evenodd" d="M98.2406 44.8659V40.8815H109.869C110.654 40.8373 111.243 40.5202 111.659 39.9334L111.66 39.9315L111.662 39.9295C112.115 39.321 112.34 38.6399 112.34 37.8794C112.34 37.0605 112.054 36.3787 111.479 35.8201L111.477 35.8188L111.476 35.8174C110.898 35.2348 110.208 34.9463 109.395 34.9463H104.93L104.925 34.9462C103.964 34.8988 103.07 34.698 102.245 34.3416C101.421 33.9859 100.701 33.4985 100.086 32.8796L100.085 32.8781L100.083 32.8767C99.4709 32.2358 98.988 31.4999 98.635 30.6702C98.2802 29.836 98.1035 28.9433 98.1035 27.9944C98.1035 27.0454 98.2802 26.142 98.6342 25.286L98.6352 25.2837L98.6362 25.2814C99.0118 24.4298 99.5064 23.6934 100.121 23.0746C100.757 22.4338 101.488 21.9348 102.312 21.5785C103.163 21.198 104.06 21.0078 105.004 21.0078H111.458V24.9923H105.012C104.219 25.0589 103.535 25.3717 102.954 25.9352L102.953 25.9367L102.951 25.9381C102.38 26.4713 102.093 27.1509 102.093 27.9944C102.093 28.8152 102.369 29.5106 102.924 30.0923C103.501 30.6727 104.201 30.9619 105.038 30.9619H109.532C110.475 30.9619 111.361 31.1518 112.189 31.5326C113.036 31.8886 113.768 32.3877 114.382 33.0301C115.018 33.6711 115.513 34.4188 115.866 35.2712C116.244 36.1049 116.432 36.9865 116.432 37.9139C116.432 38.8841 116.256 39.777 115.901 40.5894C115.57 41.3989 115.074 42.1462 114.418 42.8311L114.414 42.835L114.41 42.8388C113.708 43.4985 112.957 44.0077 112.156 44.364L112.154 44.3646L112.153 44.3651C111.369 44.7005 110.494 44.8659 109.532 44.8659H98.2406ZM115.707 40.5062C116.05 39.7227 116.222 38.8587 116.222 37.9139C116.222 37.0152 116.039 36.1627 115.673 35.3563C115.33 34.5268 114.849 33.8009 114.232 33.1788C113.637 32.5567 112.928 32.0728 112.105 31.7272C111.304 31.3585 110.447 31.1742 109.532 31.1742H105.038C104.146 31.1742 103.391 30.8631 102.774 30.241C102.179 29.6188 101.882 28.87 101.882 27.9944C101.882 27.0957 102.191 26.3584 102.808 25.7824C103.426 25.1833 104.158 24.8492 105.004 24.78H111.247V21.2201H105.004C104.089 21.2201 103.22 21.4044 102.397 21.7731C101.596 22.1187 100.887 22.6026 100.269 23.2247C99.6749 23.8238 99.1946 24.5381 98.8287 25.3676C98.4856 26.1971 98.3142 27.0727 98.3142 27.9944C98.3142 28.9161 98.4856 29.7801 98.8287 30.5866C99.1718 31.3931 99.6406 32.1074 100.235 32.7295C100.83 33.3285 101.527 33.8009 102.328 34.1465C103.128 34.4921 103.997 34.6881 104.935 34.7341H109.395C110.264 34.7341 111.007 35.0453 111.625 35.6673C112.242 36.2663 112.551 37.0038 112.551 37.8794C112.551 38.6858 112.311 39.4116 111.83 40.0569C111.373 40.7019 110.721 41.0476 109.875 41.0938H98.4513V44.6536H109.532C110.47 44.6536 111.316 44.4925 112.071 44.1699C112.848 43.8242 113.58 43.3287 114.266 42.6836C114.907 42.0154 115.387 41.2895 115.707 40.5062Z" fill="#E5D7D7"/>
<path d="M92.3095 44.6562V41.0618C91.3032 42.283 90.0454 43.1931 88.5359 43.7922C87.0265 44.3682 85.5055 44.6562 83.9733 44.6562C82.3723 44.6562 80.8515 44.3568 79.4107 43.7576C77.9697 43.1586 76.7005 42.3291 75.6027 41.2691C74.5278 40.2092 73.6702 38.9764 73.0298 37.5709C72.4122 36.1423 72.1035 34.61 72.1035 32.974C72.1035 31.3381 72.4122 29.8058 73.0298 28.3772C73.6702 26.9486 74.5278 25.7043 75.6027 24.6444C76.7005 23.5845 77.9584 22.7549 79.3763 22.1558C80.8171 21.5337 82.3494 21.2227 83.9733 21.2227C85.5971 21.2227 87.1179 21.5337 88.5359 22.1558C89.9538 22.7549 91.2003 23.5845 92.2752 24.6444C93.3502 25.7043 94.1963 26.9486 94.8138 28.3772C95.4314 29.8058 95.7401 31.3381 95.7401 32.974V44.6562H92.3095ZM83.9733 24.7826C82.8526 24.7826 81.8121 25.0015 80.8515 25.4393C79.891 25.8771 79.0448 26.4762 78.3128 27.2366C77.581 27.9739 77.0093 28.838 76.5976 29.8288C76.1859 30.8196 75.9801 31.868 75.9801 32.974C75.9801 34.1031 76.1859 35.163 76.5976 36.1539C77.0093 37.1215 77.5696 37.9741 78.2786 38.7114C79.0104 39.4487 79.8566 40.0363 80.8171 40.4742C81.8006 40.8889 82.8526 41.0962 83.9733 41.0962C85.0939 41.0962 86.1344 40.8889 87.0951 40.4742C88.0786 40.0363 88.9248 39.4487 89.6338 38.7114C90.3427 37.9741 90.9029 37.1101 91.3147 36.1193C91.7263 35.1284 91.9321 34.0801 91.9321 32.974C91.9321 31.845 91.7263 30.7851 91.3147 29.7942C90.9029 28.8034 90.3427 27.9394 89.6338 27.202C88.9248 26.4647 88.0786 25.8771 87.0951 25.4393C86.1344 25.0015 85.0939 24.7826 83.9733 24.7826Z" fill="#E5D7D7"/>
<path fill-rule="evenodd" clip-rule="evenodd" d="M92.1005 44.8659V41.6211C91.1383 42.6582 89.9756 43.4471 88.6148 43.9872L88.6135 43.9876L88.6122 43.9881C87.0802 44.5728 85.5341 44.8659 83.975 44.8659C82.3472 44.8659 80.799 44.5612 79.332 43.9512C77.8675 43.3423 76.5758 42.4985 75.4587 41.4198L75.457 41.4182C74.3634 40.3398 73.4909 39.0854 72.8401 37.6569L72.8391 37.6549L72.8383 37.653C72.2087 36.1963 71.8945 34.6352 71.8945 32.9714C71.8945 31.3078 72.2087 29.7465 72.8383 28.2898L72.839 28.2885L72.8394 28.2872C73.4902 26.8354 74.3629 25.5691 75.457 24.4901L75.4587 24.4885C76.5752 23.4106 77.8546 22.5669 79.2958 21.9578C80.7635 21.3242 82.3241 21.0078 83.975 21.0078C85.6258 21.0078 87.175 21.3241 88.6203 21.9581C90.0618 22.5673 91.3303 23.4113 92.4243 24.4901C93.5191 25.5697 94.3807 26.8369 95.0087 28.2898C95.6382 29.7465 95.9525 31.3078 95.9525 32.9714V44.8659H92.1005ZM88.5377 22.1532C87.1196 21.5311 85.5988 21.2201 83.975 21.2201C82.3511 21.2201 80.8189 21.5311 79.378 22.1532C77.9601 22.7523 76.7022 23.5819 75.6045 24.6418C74.5295 25.7017 73.6719 26.946 73.0315 28.3746C72.4141 29.8032 72.1052 31.3355 72.1052 32.9714C72.1052 34.6074 72.4141 36.1396 73.0315 37.5682C73.6719 38.9738 74.5295 40.2066 75.6045 41.2665C76.7022 42.3264 77.9716 43.156 79.4123 43.755C80.8531 44.3542 82.3741 44.6536 83.975 44.6536C85.5074 44.6536 87.0282 44.3656 88.5377 43.7896C89.9435 43.2316 91.1311 42.4038 92.1005 41.3062C92.172 41.2252 92.2422 41.1429 92.3112 41.0592V44.6536H95.7418V32.9714C95.7418 31.3355 95.4331 29.8032 94.8155 28.3746C94.1981 26.946 93.3519 25.7017 92.277 24.6418C91.202 23.5819 89.9556 22.7523 88.5377 22.1532ZM78.4647 27.3829L78.4635 27.3841C77.7517 28.1013 77.195 28.942 76.7936 29.9082C76.393 30.8722 76.1924 31.8927 76.1924 32.9714C76.1924 34.0735 76.3932 35.1052 76.7933 36.0685C77.1949 37.0121 77.7405 37.8422 78.4305 38.5601C79.143 39.2776 79.9667 39.8499 80.903 40.277C81.8585 40.6796 82.8818 40.8815 83.975 40.8815C85.0687 40.8815 86.0805 40.6792 87.0126 40.277C87.9721 39.8497 88.7952 39.2776 89.4841 38.5612C90.1739 37.8438 90.72 37.0022 91.1221 36.0347C91.5227 35.0706 91.7233 34.0502 91.7233 32.9714C91.7233 31.8691 91.5223 30.8371 91.1221 29.8736C90.72 28.9061 90.1739 28.0646 89.4841 27.3471C88.795 26.6305 87.9717 26.0582 87.0117 25.6309L87.0099 25.6301C86.0784 25.2055 85.0676 24.9923 83.975 24.9923C82.8823 24.9923 81.8716 25.2055 80.94 25.6301C80.0035 26.0569 79.1792 26.6406 78.4658 27.3818L78.4647 27.3829ZM87.0968 40.4716C86.1363 40.8863 85.0956 41.0938 83.975 41.0938C82.8543 41.0938 81.8023 40.8863 80.8189 40.4716C79.8583 40.0339 79.0121 39.4463 78.2803 38.7088C77.5713 37.9715 77.0109 37.1189 76.5993 36.1512C76.1876 35.1604 75.9818 34.1005 75.9818 32.9714C75.9818 31.8654 76.1876 30.817 76.5993 29.8262C77.0109 28.8354 77.5826 27.9713 78.3146 27.234C79.0464 26.4736 79.8927 25.8745 80.8531 25.4367C81.8138 24.9989 82.8543 24.78 83.975 24.78C85.0956 24.78 86.1363 24.9989 87.0968 25.4367C88.0802 25.8745 88.9265 26.4621 89.6354 27.1994C90.3444 27.9368 90.9048 28.8008 91.3164 29.7916C91.728 30.7824 91.9339 31.8424 91.9339 32.9714C91.9339 34.0774 91.728 35.1258 91.3164 36.1166C90.9048 37.1075 90.3444 37.9715 89.6354 38.7088C88.9265 39.4463 88.0802 40.0339 87.0968 40.4716Z" fill="#E5D7D7"/>
<path fill-rule="evenodd" clip-rule="evenodd" d="M53.9051 24.9227H57.9808C59.1242 24.9227 60.1878 25.1416 61.1712 25.5794C62.1546 25.9941 63.0008 26.5702 63.7098 27.3075C64.4416 28.0218 65.0134 28.8744 65.425 29.8652C65.8368 30.8329 66.0426 31.8813 66.0426 33.0104C66.0426 34.1165 65.8253 35.1534 65.3907 36.121C64.9791 37.0889 64.4074 37.9414 63.6756 38.6787C62.9436 39.393 62.086 39.9576 61.1025 40.3723C60.1421 40.787 59.1014 40.9943 57.9808 40.9943H53.348H51.3701L48.7773 44.658H58.2895C59.8676 44.658 61.3542 44.3586 62.7493 43.7594C64.1672 43.1374 65.4022 42.3078 66.4542 41.2709C67.5063 40.211 68.341 38.9782 68.9585 37.5726C69.5761 36.144 69.8848 34.6348 69.8848 33.0449C69.8848 31.432 69.5761 29.9228 68.9585 28.5172C68.364 27.0886 67.5406 25.8443 66.4886 24.7844C65.4366 23.7245 64.2016 22.8835 62.7835 22.2613C61.3884 21.6392 59.8904 21.3281 58.2895 21.3281H54.8278L53.9051 24.9227Z" fill="#E5D7D7"/>
<path fill-rule="evenodd" clip-rule="evenodd" d="M53.6318 25.1323L54.6634 21.1133H58.2883C59.9169 21.1133 61.4439 21.4299 62.867 22.0644C64.308 22.6967 65.565 23.5524 66.6363 24.6317C67.7078 25.7113 68.5461 26.9783 69.1508 28.4306C69.7802 29.864 70.0943 31.402 70.0943 33.0423C70.0943 34.6608 69.7797 36.199 69.1505 37.6548L69.15 37.6559C68.5222 39.0848 67.6728 40.3395 66.6019 41.4184L66.6011 41.4192L66.6003 41.42C65.529 42.4759 64.2723 43.3195 62.8322 43.9515L62.8306 43.9521C61.4084 44.5629 59.8936 44.8677 58.2883 44.8677H48.502L51.3691 40.7799L53.3464 40.7795H53.3468H57.9796C59.0738 40.7795 60.0859 40.5772 61.0184 40.1746L61.02 40.1738C61.9798 39.7691 62.8147 39.2194 63.5266 38.5248C64.2386 37.807 64.7949 36.9776 65.1958 36.0349L65.1968 36.0329L65.1976 36.031C65.6193 35.0919 65.8308 34.0848 65.8308 33.0078C65.8308 31.9054 65.6298 30.8856 65.2302 29.9462L65.2295 29.9445C64.8283 28.979 64.2725 28.1507 63.5621 27.4573L63.5596 27.455L63.5572 27.4526C62.869 26.7368 62.0469 26.1767 61.0887 25.7725L61.0867 25.7717L61.0848 25.7709C60.1298 25.3458 59.0956 25.1323 57.9796 25.1323H53.6318ZM63.6742 38.676C62.9424 39.3905 62.0848 39.9549 61.1013 40.3697C60.1409 40.7844 59.1002 40.9918 57.9796 40.9918H53.3468H51.3691L48.7761 44.6555H58.2883C59.8663 44.6555 61.353 44.3559 62.7481 43.7568C64.166 43.1346 65.401 42.3052 66.453 41.2684C67.5051 40.2084 68.3398 38.9756 68.9573 37.5701C69.5747 36.1415 69.8836 34.6323 69.8836 33.0423C69.8836 31.4294 69.5747 29.9202 68.9573 28.5146C68.3626 27.086 67.5394 25.8418 66.4874 24.7818C65.4354 23.7219 64.2002 22.8809 62.7823 22.2587C61.3872 21.6366 59.8892 21.3255 58.2883 21.3255H54.8264L53.9039 24.9201H57.9796C59.123 24.9201 60.1866 25.139 61.17 25.5768C62.1534 25.9915 62.9996 26.5676 63.7085 27.3049C64.4404 28.0192 65.0122 28.8718 65.4238 29.8626C65.8354 30.8303 66.0414 31.8787 66.0414 33.0078C66.0414 34.1137 65.8241 35.1506 65.3895 36.1185C64.9779 37.0861 64.4062 37.9387 63.6742 38.676Z" fill="#E5D7D7"/>
</g>
<defs>
<linearGradient id="paint0_linear_3524_69638" x1="63.8223" y1="11.6316" x2="80.9588" y2="8.65821" gradientUnits="userSpaceOnUse">
<stop stop-color="#EA563D"/>
<stop offset="1" stop-color="#843122"/>
</linearGradient>
<linearGradient id="paint1_linear_3524_69638" x1="11.1153" y1="37.8962" x2="17.7441" y2="40.788" gradientUnits="userSpaceOnUse">
<stop stop-opacity="0"/>
<stop offset="1"/>
</linearGradient>
<linearGradient id="paint2_linear_3524_69638" x1="29.4928" y1="41.8167" x2="25.367" y2="33.3761" gradientUnits="userSpaceOnUse">
<stop stop-opacity="0"/>
<stop offset="1"/>
</linearGradient>
<clipPath id="clip0_3524_69638">
<rect width="142.604" height="32" fill="white" transform="translate(0 17)"/>
</clipPath>
</defs>
</svg>
