<svg width="16" height="16" viewBox="0 0 16 16" fill="none" xmlns="http://www.w3.org/2000/svg">
<rect width="16" height="16" fill="white"/>
<path d="M3 12.6685V6.77103C3 6.58025 3.04267 6.39953 3.128 6.22886C3.21344 6.05809 3.33144 5.91748 3.482 5.80703L7.277 2.94803C7.48756 2.78736 7.72822 2.70703 7.999 2.70703C8.26978 2.70703 8.51111 2.78736 8.723 2.94803L12.518 5.80703C12.6686 5.91748 12.7866 6.05809 12.872 6.22886C12.9573 6.39953 13 6.58025 13 6.77103V12.6685C13 12.9412 12.9015 13.176 12.7045 13.373C12.5075 13.57 12.2727 13.6685 12 13.6685H9.87183C9.70106 13.6685 9.55794 13.6108 9.4425 13.4952C9.32694 13.3798 9.26917 13.2366 9.26917 13.0659V9.80953C9.26917 9.63886 9.21144 9.49575 9.096 9.3802C8.98056 9.26475 8.83744 9.20703 8.66667 9.20703H7.33333C7.16256 9.20703 7.01944 9.26475 6.904 9.3802C6.78856 9.49575 6.73083 9.63886 6.73083 9.80953V13.0659C6.73083 13.2366 6.67306 13.3798 6.5575 13.4952C6.44206 13.6108 6.29894 13.6685 6.12817 13.6685H4C3.72733 13.6685 3.4925 13.57 3.2955 13.373C3.0985 13.176 3 12.9412 3 12.6685Z" fill="#D54029"/>
</svg>
