<svg width="16" height="16" viewBox="0 0 16 16" fill="none" xmlns="http://www.w3.org/2000/svg">
<path d="M5.9 8.0013L6.86667 7.03464C7 6.9013 7.06389 6.74575 7.05833 6.56797C7.05278 6.39019 6.98889 6.23463 6.86667 6.1013C6.73333 5.96797 6.575 5.89852 6.39167 5.89297C6.20833 5.88741 6.05 5.9513 5.91667 6.08464L4.46667 7.53464C4.33333 7.66797 4.26667 7.82352 4.26667 8.0013C4.26667 8.17908 4.33333 8.33463 4.46667 8.46797L5.91667 9.91797C6.05 10.0513 6.20833 10.1152 6.39167 10.1096C6.575 10.1041 6.73333 10.0346 6.86667 9.9013C6.98889 9.76797 7.05278 9.61241 7.05833 9.43464C7.06389 9.25686 7 9.1013 6.86667 8.96797L5.9 8.0013ZM10.1 8.0013L9.13333 8.96797C9 9.1013 8.93611 9.25686 8.94167 9.43464C8.94722 9.61241 9.01111 9.76797 9.13333 9.9013C9.26667 10.0346 9.425 10.1041 9.60833 10.1096C9.79167 10.1152 9.95 10.0513 10.0833 9.91797L11.5333 8.46797C11.6667 8.33463 11.7333 8.17908 11.7333 8.0013C11.7333 7.82352 11.6667 7.66797 11.5333 7.53464L10.0833 6.08464C9.95 5.9513 9.79167 5.88741 9.60833 5.89297C9.425 5.89852 9.26667 5.96797 9.13333 6.1013C9.01111 6.23463 8.94722 6.39019 8.94167 6.56797C8.93611 6.74575 9 6.9013 9.13333 7.03464L10.1 8.0013ZM3.33333 14.0013C2.96667 14.0013 2.65278 13.8707 2.39167 13.6096C2.13056 13.3485 2 13.0346 2 12.668V3.33464C2 2.96797 2.13056 2.65408 2.39167 2.39297C2.65278 2.13186 2.96667 2.0013 3.33333 2.0013H6.13333C6.27778 1.6013 6.51944 1.27908 6.85833 1.03464C7.19722 0.790191 7.57778 0.667969 8 0.667969C8.42222 0.667969 8.80278 0.790191 9.14167 1.03464C9.48056 1.27908 9.72222 1.6013 9.86667 2.0013H12.6667C13.0333 2.0013 13.3472 2.13186 13.6083 2.39297C13.8694 2.65408 14 2.96797 14 3.33464V12.668C14 13.0346 13.8694 13.3485 13.6083 13.6096C13.3472 13.8707 13.0333 14.0013 12.6667 14.0013H3.33333ZM8 2.83464C8.14444 2.83464 8.26389 2.78741 8.35833 2.69297C8.45278 2.59852 8.5 2.47908 8.5 2.33464C8.5 2.19019 8.45278 2.07075 8.35833 1.9763C8.26389 1.88186 8.14444 1.83464 8 1.83464C7.85556 1.83464 7.73611 1.88186 7.64167 1.9763C7.54722 2.07075 7.5 2.19019 7.5 2.33464C7.5 2.47908 7.54722 2.59852 7.64167 2.69297C7.73611 2.78741 7.85556 2.83464 8 2.83464Z" fill="#D54029"/>
</svg>
