<svg width="16" height="16" viewBox="0 0 16 16" fill="none" xmlns="http://www.w3.org/2000/svg">
<path d="M5.37282 11.1782C5.54004 11.1782 5.6801 11.1216 5.79298 11.0085C5.90576 10.8954 5.96215 10.7553 5.96215 10.588C5.96215 10.4208 5.9056 10.2808 5.79248 10.1679C5.67937 10.0551 5.53921 9.9987 5.37198 9.9987C5.20476 9.9987 5.06476 10.0553 4.95198 10.1684C4.8391 10.2815 4.78265 10.4216 4.78265 10.5889C4.78265 10.7561 4.83921 10.8961 4.95232 11.0089C5.06554 11.1218 5.20571 11.1782 5.37282 11.1782ZM5.37282 8.58836C5.54004 8.58836 5.6801 8.53181 5.79298 8.4187C5.90576 8.30559 5.96215 8.16542 5.96215 7.9982C5.96215 7.83098 5.9056 7.69098 5.79248 7.5782C5.67937 7.46542 5.53921 7.40903 5.37198 7.40903C5.20476 7.40903 5.06476 7.46559 4.95198 7.5787C4.8391 7.69181 4.78265 7.83198 4.78265 7.9992C4.78265 8.16642 4.83921 8.30642 4.95232 8.4192C5.06554 8.53198 5.20571 8.58836 5.37282 8.58836ZM5.37282 5.9987C5.54004 5.9987 5.6801 5.94214 5.79298 5.82903C5.90576 5.71592 5.96215 5.57575 5.96215 5.40853C5.96215 5.24131 5.9056 5.10131 5.79248 4.98853C5.67937 4.87564 5.53921 4.8192 5.37198 4.8192C5.20476 4.8192 5.06476 4.87575 4.95198 4.98886C4.8391 5.10198 4.78265 5.24214 4.78265 5.40936C4.78265 5.57659 4.83921 5.71664 4.95232 5.82953C5.06554 5.94231 5.20571 5.9987 5.37282 5.9987ZM7.89815 11.0884H10.693C10.8347 11.0884 10.9534 11.0404 11.0492 10.9445C11.145 10.8488 11.193 10.73 11.193 10.5882C11.193 10.4465 11.145 10.3278 11.0492 10.232C10.9534 10.1364 10.8347 10.0885 10.693 10.0885H7.89815C7.75648 10.0885 7.63771 10.1364 7.54182 10.2322C7.44604 10.3281 7.39815 10.4469 7.39815 10.5887C7.39815 10.7304 7.44604 10.8491 7.54182 10.9449C7.63771 11.0405 7.75648 11.0884 7.89815 11.0884ZM7.89815 8.4987H10.693C10.8347 8.4987 10.9534 8.45075 11.0492 8.35486C11.145 8.25898 11.193 8.1402 11.193 7.99853C11.193 7.85675 11.145 7.73803 11.0492 7.64236C10.9534 7.54659 10.8347 7.4987 10.693 7.4987H7.89815C7.75648 7.4987 7.63771 7.54664 7.54182 7.64253C7.44604 7.73842 7.39815 7.8572 7.39815 7.99886C7.39815 8.14064 7.44604 8.25936 7.54182 8.35503C7.63771 8.45081 7.75648 8.4987 7.89815 8.4987ZM7.89815 5.90886H10.693C10.8347 5.90886 10.9534 5.86098 11.0492 5.7652C11.145 5.66931 11.193 5.55048 11.193 5.4087C11.193 5.26703 11.145 5.14831 11.0492 5.05253C10.9534 4.95686 10.8347 4.90903 10.693 4.90903H7.89815C7.75648 4.90903 7.63771 4.95698 7.54182 5.05286C7.44604 5.14864 7.39815 5.26742 7.39815 5.4092C7.39815 5.55086 7.44604 5.66959 7.54182 5.76536C7.63771 5.86103 7.75648 5.90886 7.89815 5.90886ZM3.53915 13.6654C3.20237 13.6654 2.91732 13.5487 2.68398 13.3154C2.45065 13.082 2.33398 12.797 2.33398 12.4602V3.5372C2.33398 3.20042 2.45065 2.91536 2.68398 2.68203C2.91732 2.4487 3.20237 2.33203 3.53915 2.33203H12.4622C12.7989 2.33203 13.084 2.4487 13.3173 2.68203C13.5507 2.91536 13.6673 3.20042 13.6673 3.5372V12.4602C13.6673 12.797 13.5507 13.082 13.3173 13.3154C13.084 13.5487 12.7989 13.6654 12.4622 13.6654H3.53915Z" fill="#D54029"/>
</svg>
