<svg width="16" height="16" viewBox="0 0 16 16" fill="none" xmlns="http://www.w3.org/2000/svg">
<path d="M3.53915 13.6654C3.20671 13.6654 2.92271 13.5476 2.68715 13.3122C2.45171 13.0766 2.33398 12.7926 2.33398 12.4602V4.6692C2.33398 4.52653 2.35687 4.39042 2.40265 4.26086C2.44832 4.13142 2.51687 4.01198 2.60832 3.90253L3.54432 2.77053C3.65365 2.62775 3.79037 2.51898 3.95448 2.4442C4.1186 2.36942 4.2921 2.33203 4.47498 2.33203H11.5135C11.6964 2.33203 11.8709 2.36942 12.0372 2.4442C12.2034 2.51898 12.3412 2.62775 12.4507 2.77053L13.393 3.91536C13.4844 4.02481 13.553 4.14531 13.5986 4.27686C13.6444 4.40853 13.6673 4.54575 13.6673 4.68853V12.4602C13.6673 12.7926 13.5496 13.0766 13.3142 13.3122C13.0786 13.5476 12.7946 13.6654 12.4622 13.6654H3.53915ZM3.59432 4.26803H12.4007L11.6737 3.40253C11.6523 3.3812 11.6278 3.36409 11.6 3.3512C11.5722 3.33842 11.5434 3.33203 11.5135 3.33203H4.48148C4.4516 3.33203 4.42271 3.33842 4.39482 3.3512C4.36704 3.36409 4.34248 3.3812 4.32115 3.40253L3.59432 4.26803ZM10.334 5.26786H5.66732V9.2167C5.66732 9.44659 5.76221 9.62009 5.95198 9.7372C6.14176 9.8542 6.33704 9.86142 6.53782 9.75886L8.00065 9.0307L9.46348 9.75886C9.66426 9.86142 9.85954 9.8542 10.0493 9.7372C10.2391 9.62009 10.334 9.44659 10.334 9.2167V5.26786Z" fill="#D54029"/>
</svg>
