<svg width="16" height="16" viewBox="0 0 16 16" fill="none" xmlns="http://www.w3.org/2000/svg">
<path d="M7.26247 14.3346C7.03514 14.3346 6.83881 14.2592 6.67347 14.1083C6.50803 13.9575 6.40736 13.7719 6.37147 13.5513L6.20864 12.3038C6.03008 12.244 5.84697 12.1603 5.65931 12.0526C5.47175 11.9449 5.30403 11.8295 5.15614 11.7065L4.00097 12.1975C3.79153 12.2898 3.58108 12.2987 3.36964 12.2243C3.15808 12.15 2.99375 12.015 2.87664 11.8193L2.12531 10.5166C2.00819 10.321 1.97447 10.1139 2.02414 9.89547C2.07369 9.67714 2.18736 9.49703 2.36514 9.35514L3.36381 8.60514C3.34847 8.50602 3.33758 8.40647 3.33114 8.30647C3.32469 8.20647 3.32147 8.10686 3.32147 8.00764C3.32147 7.91286 3.32469 7.81652 3.33114 7.71864C3.33758 7.62075 3.34847 7.51369 3.36381 7.39747L2.36514 6.64747C2.18736 6.50558 2.07475 6.32436 2.02731 6.1038C1.97986 5.88336 2.01469 5.67525 2.13181 5.47947L2.87664 4.19614C2.99375 4.00469 3.15808 3.87075 3.36964 3.7943C3.58108 3.71775 3.79153 3.72564 4.00097 3.81797L5.14964 4.30264C5.31042 4.1753 5.48203 4.05886 5.66447 3.9533C5.84692 3.84775 6.0262 3.76291 6.20231 3.6988L6.37147 2.4513C6.40736 2.23075 6.50803 2.04508 6.67347 1.8943C6.83881 1.74341 7.03514 1.66797 7.26247 1.66797H8.73947C8.96681 1.66797 9.16314 1.74341 9.32847 1.8943C9.49392 2.04508 9.59458 2.23075 9.63047 2.4513L9.79331 3.70514C9.99331 3.7778 10.1743 3.86264 10.3361 3.95964C10.4981 4.05664 10.6616 4.17097 10.8266 4.30264L12.0075 3.81797C12.2168 3.72564 12.4273 3.71775 12.6388 3.7943C12.8504 3.87075 13.0146 4.00469 13.1316 4.19614L13.8766 5.48597C13.9938 5.68164 14.0275 5.88869 13.9778 6.10714C13.9283 6.32547 13.8146 6.50558 13.6368 6.64747L12.6125 7.41664C12.6364 7.5243 12.6494 7.62497 12.6516 7.71864C12.6538 7.81219 12.6548 7.90641 12.6548 8.0013C12.6548 8.09186 12.6526 8.18397 12.6483 8.27764C12.6441 8.37119 12.6288 8.47825 12.6023 8.5988L13.6073 9.35514C13.7851 9.49703 13.8999 9.67714 13.9516 9.89547C14.0033 10.1139 13.9706 10.321 13.8535 10.5166L13.0983 11.8128C12.9813 12.0086 12.816 12.1436 12.6023 12.218C12.3886 12.2923 12.1771 12.2833 11.9676 12.191L10.8266 11.7C10.6616 11.8316 10.4933 11.9481 10.3215 12.0493C10.1497 12.1506 9.97364 12.2334 9.79331 12.2975L9.63047 13.5513C9.59458 13.7719 9.49392 13.9575 9.32847 14.1083C9.16314 14.2592 8.96681 14.3346 8.73947 14.3346H7.26247ZM8.00864 10.0013C8.56331 10.0013 9.03531 9.80664 9.42464 9.4173C9.81397 9.02797 10.0086 8.55597 10.0086 8.0013C10.0086 7.44664 9.81397 6.97464 9.42464 6.5853C9.03531 6.19597 8.56331 6.0013 8.00864 6.0013C7.44708 6.0013 6.97336 6.19597 6.58747 6.5853C6.20158 6.97464 6.00864 7.44664 6.00864 8.0013C6.00864 8.55597 6.20158 9.02797 6.58747 9.4173C6.97336 9.80664 7.44708 10.0013 8.00864 10.0013Z" fill="#D54029"/>
</svg>
