<svg width="92" height="24" viewBox="0 0 92 24" fill="none" xmlns="http://www.w3.org/2000/svg">
<rect x="0.5" y="0.5" width="91" height="23" rx="11.5" fill="white"/>
<rect x="0.5" y="0.5" width="91" height="23" rx="11.5" fill="#A3EDB7"/>
<rect x="0.5" y="0.5" width="91" height="23" rx="11.5" fill="white" fill-opacity="0.8"/>
<rect x="0.5" y="0.5" width="91" height="23" rx="11.5" stroke="#EAEBF1"/>
<rect x="0.5" y="0.5" width="91" height="23" rx="11.5" stroke="#38A957"/>
<path d="M32.928 14.296H29.436L28.836 16H27.408L30.396 7.648H31.98L34.968 16H33.528L32.928 14.296ZM32.544 13.18L31.188 9.304L29.82 13.18H32.544ZM35.8112 12.688C35.8112 12.008 35.9472 11.412 36.2192 10.9C36.4992 10.38 36.8832 9.98 37.3712 9.7C37.8592 9.42 38.4192 9.28 39.0512 9.28C39.8512 9.28 40.5112 9.472 41.0312 9.856C41.5592 10.232 41.9152 10.772 42.0992 11.476H40.6232C40.5032 11.148 40.3112 10.892 40.0472 10.708C39.7832 10.524 39.4512 10.432 39.0512 10.432C38.4912 10.432 38.0432 10.632 37.7072 11.032C37.3792 11.424 37.2152 11.976 37.2152 12.688C37.2152 13.4 37.3792 13.956 37.7072 14.356C38.0432 14.756 38.4912 14.956 39.0512 14.956C39.8432 14.956 40.3672 14.608 40.6232 13.912H42.0992C41.9072 14.584 41.5472 15.12 41.0192 15.52C40.4912 15.912 39.8352 16.108 39.0512 16.108C38.4192 16.108 37.8592 15.968 37.3712 15.688C36.8832 15.4 36.4992 15 36.2192 14.488C35.9472 13.968 35.8112 13.368 35.8112 12.688ZM45.0585 10.504V14.164C45.0585 14.412 45.1145 14.592 45.2265 14.704C45.3465 14.808 45.5465 14.86 45.8265 14.86H46.6665V16H45.5865C44.9705 16 44.4985 15.856 44.1705 15.568C43.8425 15.28 43.6785 14.812 43.6785 14.164V10.504H42.8985V9.388H43.6785V7.744H45.0585V9.388H46.6665V10.504H45.0585ZM48.6233 8.512C48.3753 8.512 48.1673 8.428 47.9993 8.26C47.8313 8.092 47.7473 7.884 47.7473 7.636C47.7473 7.388 47.8313 7.18 47.9993 7.012C48.1673 6.844 48.3753 6.76 48.6233 6.76C48.8633 6.76 49.0673 6.844 49.2353 7.012C49.4033 7.18 49.4873 7.388 49.4873 7.636C49.4873 7.884 49.4033 8.092 49.2353 8.26C49.0673 8.428 48.8633 8.512 48.6233 8.512ZM49.2953 9.388V16H47.9273V9.388H49.2953ZM53.6474 14.776L55.5194 9.388H56.9714L54.4514 16H52.8194L50.3114 9.388H51.7754L53.6474 14.776ZM64.0655 12.532C64.0655 12.78 64.0495 13.004 64.0175 13.204H58.9655C59.0055 13.732 59.2015 14.156 59.5535 14.476C59.9055 14.796 60.3375 14.956 60.8495 14.956C61.5855 14.956 62.1055 14.648 62.4095 14.032H63.8855C63.6855 14.64 63.3215 15.14 62.7935 15.532C62.2735 15.916 61.6255 16.108 60.8495 16.108C60.2175 16.108 59.6495 15.968 59.1455 15.688C58.6495 15.4 58.2575 15 57.9695 14.488C57.6895 13.968 57.5495 13.368 57.5495 12.688C57.5495 12.008 57.6855 11.412 57.9575 10.9C58.2375 10.38 58.6255 9.98 59.1215 9.7C59.6255 9.42 60.2015 9.28 60.8495 9.28C61.4735 9.28 62.0295 9.416 62.5175 9.688C63.0055 9.96 63.3855 10.344 63.6575 10.84C63.9295 11.328 64.0655 11.892 64.0655 12.532ZM62.6375 12.1C62.6295 11.596 62.4495 11.192 62.0975 10.888C61.7455 10.584 61.3095 10.432 60.7895 10.432C60.3175 10.432 59.9135 10.584 59.5775 10.888C59.2415 11.184 59.0415 11.588 58.9775 12.1H62.6375Z" fill="#2B873D"/>
<path d="M32.928 14.296H29.436L28.836 16H27.408L30.396 7.648H31.98L34.968 16H33.528L32.928 14.296ZM32.544 13.18L31.188 9.304L29.82 13.18H32.544ZM35.8112 12.688C35.8112 12.008 35.9472 11.412 36.2192 10.9C36.4992 10.38 36.8832 9.98 37.3712 9.7C37.8592 9.42 38.4192 9.28 39.0512 9.28C39.8512 9.28 40.5112 9.472 41.0312 9.856C41.5592 10.232 41.9152 10.772 42.0992 11.476H40.6232C40.5032 11.148 40.3112 10.892 40.0472 10.708C39.7832 10.524 39.4512 10.432 39.0512 10.432C38.4912 10.432 38.0432 10.632 37.7072 11.032C37.3792 11.424 37.2152 11.976 37.2152 12.688C37.2152 13.4 37.3792 13.956 37.7072 14.356C38.0432 14.756 38.4912 14.956 39.0512 14.956C39.8432 14.956 40.3672 14.608 40.6232 13.912H42.0992C41.9072 14.584 41.5472 15.12 41.0192 15.52C40.4912 15.912 39.8352 16.108 39.0512 16.108C38.4192 16.108 37.8592 15.968 37.3712 15.688C36.8832 15.4 36.4992 15 36.2192 14.488C35.9472 13.968 35.8112 13.368 35.8112 12.688ZM45.0585 10.504V14.164C45.0585 14.412 45.1145 14.592 45.2265 14.704C45.3465 14.808 45.5465 14.86 45.8265 14.86H46.6665V16H45.5865C44.9705 16 44.4985 15.856 44.1705 15.568C43.8425 15.28 43.6785 14.812 43.6785 14.164V10.504H42.8985V9.388H43.6785V7.744H45.0585V9.388H46.6665V10.504H45.0585ZM48.6233 8.512C48.3753 8.512 48.1673 8.428 47.9993 8.26C47.8313 8.092 47.7473 7.884 47.7473 7.636C47.7473 7.388 47.8313 7.18 47.9993 7.012C48.1673 6.844 48.3753 6.76 48.6233 6.76C48.8633 6.76 49.0673 6.844 49.2353 7.012C49.4033 7.18 49.4873 7.388 49.4873 7.636C49.4873 7.884 49.4033 8.092 49.2353 8.26C49.0673 8.428 48.8633 8.512 48.6233 8.512ZM49.2953 9.388V16H47.9273V9.388H49.2953ZM53.6474 14.776L55.5194 9.388H56.9714L54.4514 16H52.8194L50.3114 9.388H51.7754L53.6474 14.776ZM64.0655 12.532C64.0655 12.78 64.0495 13.004 64.0175 13.204H58.9655C59.0055 13.732 59.2015 14.156 59.5535 14.476C59.9055 14.796 60.3375 14.956 60.8495 14.956C61.5855 14.956 62.1055 14.648 62.4095 14.032H63.8855C63.6855 14.64 63.3215 15.14 62.7935 15.532C62.2735 15.916 61.6255 16.108 60.8495 16.108C60.2175 16.108 59.6495 15.968 59.1455 15.688C58.6495 15.4 58.2575 15 57.9695 14.488C57.6895 13.968 57.5495 13.368 57.5495 12.688C57.5495 12.008 57.6855 11.412 57.9575 10.9C58.2375 10.38 58.6255 9.98 59.1215 9.7C59.6255 9.42 60.2015 9.28 60.8495 9.28C61.4735 9.28 62.0295 9.416 62.5175 9.688C63.0055 9.96 63.3855 10.344 63.6575 10.84C63.9295 11.328 64.0655 11.892 64.0655 12.532ZM62.6375 12.1C62.6295 11.596 62.4495 11.192 62.0975 10.888C61.7455 10.584 61.3095 10.432 60.7895 10.432C60.3175 10.432 59.9135 10.584 59.5775 10.888C59.2415 11.184 59.0415 11.588 58.9775 12.1H62.6375Z" fill="#2B873D"/>
</svg>
