<svg width="92" height="24" viewBox="0 0 92 24" fill="none" xmlns="http://www.w3.org/2000/svg">
<rect x="0.5" y="0.5" width="91" height="23" rx="11.5" fill="white"/>
<rect x="0.5" y="0.5" width="91" height="23" rx="11.5" fill="#F2B8AE"/>
<rect x="0.5" y="0.5" width="91" height="23" rx="11.5" fill="white" fill-opacity="0.8"/>
<rect x="0.5" y="0.5" width="91" height="23" rx="11.5" stroke="#EAEBF1"/>
<rect x="0.5" y="0.5" width="91" height="23" rx="11.5" stroke="#F1583E"/>
<path d="M12.624 7.66C13.512 7.66 14.288 7.832 14.952 8.176C15.624 8.512 16.14 9 16.5 9.64C16.868 10.272 17.052 11.012 17.052 11.86C17.052 12.708 16.868 13.444 16.5 14.068C16.14 14.692 15.624 15.172 14.952 15.508C14.288 15.836 13.512 16 12.624 16H9.9V7.66H12.624ZM12.624 14.884C13.6 14.884 14.348 14.62 14.868 14.092C15.388 13.564 15.648 12.82 15.648 11.86C15.648 10.892 15.388 10.136 14.868 9.592C14.348 9.048 13.6 8.776 12.624 8.776H11.268V14.884H12.624ZM24.4678 12.532C24.4678 12.78 24.4518 13.004 24.4198 13.204H19.3678C19.4078 13.732 19.6038 14.156 19.9558 14.476C20.3078 14.796 20.7398 14.956 21.2518 14.956C21.9878 14.956 22.5078 14.648 22.8118 14.032H24.2878C24.0878 14.64 23.7238 15.14 23.1958 15.532C22.6758 15.916 22.0278 16.108 21.2518 16.108C20.6198 16.108 20.0518 15.968 19.5478 15.688C19.0518 15.4 18.6598 15 18.3718 14.488C18.0918 13.968 17.9518 13.368 17.9518 12.688C17.9518 12.008 18.0878 11.412 18.3598 10.9C18.6398 10.38 19.0278 9.98 19.5238 9.7C20.0278 9.42 20.6038 9.28 21.2518 9.28C21.8758 9.28 22.4318 9.416 22.9198 9.688C23.4078 9.96 23.7878 10.344 24.0598 10.84C24.3318 11.328 24.4678 11.892 24.4678 12.532ZM23.0398 12.1C23.0318 11.596 22.8518 11.192 22.4998 10.888C22.1478 10.584 21.7118 10.432 21.1918 10.432C20.7198 10.432 20.3158 10.584 19.9798 10.888C19.6438 11.184 19.4438 11.588 19.3798 12.1H23.0398ZM25.3581 12.664C25.3581 12 25.4941 11.412 25.7661 10.9C26.0461 10.388 26.4221 9.992 26.8941 9.712C27.3741 9.424 27.9021 9.28 28.4781 9.28C28.9981 9.28 29.4501 9.384 29.8341 9.592C30.2261 9.792 30.5381 10.044 30.7701 10.348V9.388H32.1501V16H30.7701V15.016C30.5381 15.328 30.2221 15.588 29.8221 15.796C29.4221 16.004 28.9661 16.108 28.4541 16.108C27.8861 16.108 27.3661 15.964 26.8941 15.676C26.4221 15.38 26.0461 14.972 25.7661 14.452C25.4941 13.924 25.3581 13.328 25.3581 12.664ZM30.7701 12.688C30.7701 12.232 30.6741 11.836 30.4821 11.5C30.2981 11.164 30.0541 10.908 29.7501 10.732C29.4461 10.556 29.1181 10.468 28.7661 10.468C28.4141 10.468 28.0861 10.556 27.7821 10.732C27.4781 10.9 27.2301 11.152 27.0381 11.488C26.8541 11.816 26.7621 12.208 26.7621 12.664C26.7621 13.12 26.8541 13.52 27.0381 13.864C27.2301 14.208 27.4781 14.472 27.7821 14.656C28.0941 14.832 28.4221 14.92 28.7661 14.92C29.1181 14.92 29.4461 14.832 29.7501 14.656C30.0541 14.48 30.2981 14.224 30.4821 13.888C30.6741 13.544 30.7701 13.144 30.7701 12.688ZM33.4909 12.688C33.4909 12.008 33.6269 11.412 33.8989 10.9C34.1789 10.38 34.5629 9.98 35.0509 9.7C35.5389 9.42 36.0989 9.28 36.7309 9.28C37.5309 9.28 38.1909 9.472 38.7109 9.856C39.2389 10.232 39.5949 10.772 39.7789 11.476H38.3029C38.1829 11.148 37.9909 10.892 37.7269 10.708C37.4629 10.524 37.1309 10.432 36.7309 10.432C36.1709 10.432 35.7229 10.632 35.3869 11.032C35.0589 11.424 34.8949 11.976 34.8949 12.688C34.8949 13.4 35.0589 13.956 35.3869 14.356C35.7229 14.756 36.1709 14.956 36.7309 14.956C37.5229 14.956 38.0469 14.608 38.3029 13.912H39.7789C39.5869 14.584 39.2269 15.12 38.6989 15.52C38.1709 15.912 37.5149 16.108 36.7309 16.108C36.0989 16.108 35.5389 15.968 35.0509 15.688C34.5629 15.4 34.1789 15 33.8989 14.488C33.6269 13.968 33.4909 13.368 33.4909 12.688ZM42.7382 10.504V14.164C42.7382 14.412 42.7942 14.592 42.9062 14.704C43.0262 14.808 43.2262 14.86 43.5062 14.86H44.3462V16H43.2662C42.6502 16 42.1782 15.856 41.8502 15.568C41.5222 15.28 41.3582 14.812 41.3582 14.164V10.504H40.5782V9.388H41.3582V7.744H42.7382V9.388H44.3462V10.504H42.7382ZM46.303 8.512C46.055 8.512 45.847 8.428 45.679 8.26C45.511 8.092 45.427 7.884 45.427 7.636C45.427 7.388 45.511 7.18 45.679 7.012C45.847 6.844 46.055 6.76 46.303 6.76C46.543 6.76 46.747 6.844 46.915 7.012C47.083 7.18 47.167 7.388 47.167 7.636C47.167 7.884 47.083 8.092 46.915 8.26C46.747 8.428 46.543 8.512 46.303 8.512ZM46.975 9.388V16H45.607V9.388H46.975ZM51.3271 14.776L53.1991 9.388H54.6511L52.1311 16H50.4991L47.9911 9.388H49.4551L51.3271 14.776ZM55.2292 12.664C55.2292 12 55.3652 11.412 55.6372 10.9C55.9172 10.388 56.2932 9.992 56.7652 9.712C57.2452 9.424 57.7732 9.28 58.3492 9.28C58.8692 9.28 59.3212 9.384 59.7052 9.592C60.0972 9.792 60.4092 10.044 60.6412 10.348V9.388H62.0212V16H60.6412V15.016C60.4092 15.328 60.0932 15.588 59.6932 15.796C59.2932 16.004 58.8372 16.108 58.3252 16.108C57.7572 16.108 57.2372 15.964 56.7652 15.676C56.2932 15.38 55.9172 14.972 55.6372 14.452C55.3652 13.924 55.2292 13.328 55.2292 12.664ZM60.6412 12.688C60.6412 12.232 60.5452 11.836 60.3532 11.5C60.1692 11.164 59.9252 10.908 59.6212 10.732C59.3172 10.556 58.9892 10.468 58.6372 10.468C58.2852 10.468 57.9572 10.556 57.6532 10.732C57.3492 10.9 57.1012 11.152 56.9092 11.488C56.7252 11.816 56.6332 12.208 56.6332 12.664C56.6332 13.12 56.7252 13.52 56.9092 13.864C57.1012 14.208 57.3492 14.472 57.6532 14.656C57.9652 14.832 58.2932 14.92 58.6372 14.92C58.9892 14.92 59.3172 14.832 59.6212 14.656C59.9252 14.48 60.1692 14.224 60.3532 13.888C60.5452 13.544 60.6412 13.144 60.6412 12.688ZM65.414 10.504V14.164C65.414 14.412 65.47 14.592 65.582 14.704C65.702 14.808 65.902 14.86 66.182 14.86H67.022V16H65.942C65.326 16 64.854 15.856 64.526 15.568C64.198 15.28 64.034 14.812 64.034 14.164V10.504H63.254V9.388H64.034V7.744H65.414V9.388H67.022V10.504H65.414ZM74.3428 12.532C74.3428 12.78 74.3268 13.004 74.2948 13.204H69.2428C69.2828 13.732 69.4788 14.156 69.8308 14.476C70.1828 14.796 70.6148 14.956 71.1268 14.956C71.8628 14.956 72.3828 14.648 72.6868 14.032H74.1628C73.9628 14.64 73.5988 15.14 73.0708 15.532C72.5508 15.916 71.9028 16.108 71.1268 16.108C70.4948 16.108 69.9268 15.968 69.4228 15.688C68.9268 15.4 68.5348 15 68.2468 14.488C67.9668 13.968 67.8268 13.368 67.8268 12.688C67.8268 12.008 67.9628 11.412 68.2348 10.9C68.5148 10.38 68.9028 9.98 69.3988 9.7C69.9028 9.42 70.4788 9.28 71.1268 9.28C71.7508 9.28 72.3068 9.416 72.7948 9.688C73.2828 9.96 73.6628 10.344 73.9348 10.84C74.2068 11.328 74.3428 11.892 74.3428 12.532ZM72.9148 12.1C72.9068 11.596 72.7268 11.192 72.3748 10.888C72.0228 10.584 71.5868 10.432 71.0668 10.432C70.5948 10.432 70.1908 10.584 69.8548 10.888C69.5188 11.184 69.3188 11.588 69.2548 12.1H72.9148ZM75.2331 12.664C75.2331 12 75.3691 11.412 75.6411 10.9C75.9211 10.388 76.2971 9.992 76.7691 9.712C77.2491 9.424 77.7811 9.28 78.3651 9.28C78.7971 9.28 79.2211 9.376 79.6371 9.568C80.0611 9.752 80.3971 10 80.6451 10.312V7.12H82.0251V16H80.6451V15.004C80.4211 15.324 80.1091 15.588 79.7091 15.796C79.3171 16.004 78.8651 16.108 78.3531 16.108C77.7771 16.108 77.2491 15.964 76.7691 15.676C76.2971 15.38 75.9211 14.972 75.6411 14.452C75.3691 13.924 75.2331 13.328 75.2331 12.664ZM80.6451 12.688C80.6451 12.232 80.5491 11.836 80.3571 11.5C80.1731 11.164 79.9291 10.908 79.6251 10.732C79.3211 10.556 78.9931 10.468 78.6411 10.468C78.2891 10.468 77.9611 10.556 77.6571 10.732C77.3531 10.9 77.1051 11.152 76.9131 11.488C76.7291 11.816 76.6371 12.208 76.6371 12.664C76.6371 13.12 76.7291 13.52 76.9131 13.864C77.1051 14.208 77.3531 14.472 77.6571 14.656C77.9691 14.832 78.2971 14.92 78.6411 14.92C78.9931 14.92 79.3211 14.832 79.6251 14.656C79.9291 14.48 80.1731 14.224 80.3571 13.888C80.5491 13.544 80.6451 13.144 80.6451 12.688Z" fill="#F1583E"/>
<path d="M12.624 7.66C13.512 7.66 14.288 7.832 14.952 8.176C15.624 8.512 16.14 9 16.5 9.64C16.868 10.272 17.052 11.012 17.052 11.86C17.052 12.708 16.868 13.444 16.5 14.068C16.14 14.692 15.624 15.172 14.952 15.508C14.288 15.836 13.512 16 12.624 16H9.9V7.66H12.624ZM12.624 14.884C13.6 14.884 14.348 14.62 14.868 14.092C15.388 13.564 15.648 12.82 15.648 11.86C15.648 10.892 15.388 10.136 14.868 9.592C14.348 9.048 13.6 8.776 12.624 8.776H11.268V14.884H12.624ZM24.4678 12.532C24.4678 12.78 24.4518 13.004 24.4198 13.204H19.3678C19.4078 13.732 19.6038 14.156 19.9558 14.476C20.3078 14.796 20.7398 14.956 21.2518 14.956C21.9878 14.956 22.5078 14.648 22.8118 14.032H24.2878C24.0878 14.64 23.7238 15.14 23.1958 15.532C22.6758 15.916 22.0278 16.108 21.2518 16.108C20.6198 16.108 20.0518 15.968 19.5478 15.688C19.0518 15.4 18.6598 15 18.3718 14.488C18.0918 13.968 17.9518 13.368 17.9518 12.688C17.9518 12.008 18.0878 11.412 18.3598 10.9C18.6398 10.38 19.0278 9.98 19.5238 9.7C20.0278 9.42 20.6038 9.28 21.2518 9.28C21.8758 9.28 22.4318 9.416 22.9198 9.688C23.4078 9.96 23.7878 10.344 24.0598 10.84C24.3318 11.328 24.4678 11.892 24.4678 12.532ZM23.0398 12.1C23.0318 11.596 22.8518 11.192 22.4998 10.888C22.1478 10.584 21.7118 10.432 21.1918 10.432C20.7198 10.432 20.3158 10.584 19.9798 10.888C19.6438 11.184 19.4438 11.588 19.3798 12.1H23.0398ZM25.3581 12.664C25.3581 12 25.4941 11.412 25.7661 10.9C26.0461 10.388 26.4221 9.992 26.8941 9.712C27.3741 9.424 27.9021 9.28 28.4781 9.28C28.9981 9.28 29.4501 9.384 29.8341 9.592C30.2261 9.792 30.5381 10.044 30.7701 10.348V9.388H32.1501V16H30.7701V15.016C30.5381 15.328 30.2221 15.588 29.8221 15.796C29.4221 16.004 28.9661 16.108 28.4541 16.108C27.8861 16.108 27.3661 15.964 26.8941 15.676C26.4221 15.38 26.0461 14.972 25.7661 14.452C25.4941 13.924 25.3581 13.328 25.3581 12.664ZM30.7701 12.688C30.7701 12.232 30.6741 11.836 30.4821 11.5C30.2981 11.164 30.0541 10.908 29.7501 10.732C29.4461 10.556 29.1181 10.468 28.7661 10.468C28.4141 10.468 28.0861 10.556 27.7821 10.732C27.4781 10.9 27.2301 11.152 27.0381 11.488C26.8541 11.816 26.7621 12.208 26.7621 12.664C26.7621 13.12 26.8541 13.52 27.0381 13.864C27.2301 14.208 27.4781 14.472 27.7821 14.656C28.0941 14.832 28.4221 14.92 28.7661 14.92C29.1181 14.92 29.4461 14.832 29.7501 14.656C30.0541 14.48 30.2981 14.224 30.4821 13.888C30.6741 13.544 30.7701 13.144 30.7701 12.688ZM33.4909 12.688C33.4909 12.008 33.6269 11.412 33.8989 10.9C34.1789 10.38 34.5629 9.98 35.0509 9.7C35.5389 9.42 36.0989 9.28 36.7309 9.28C37.5309 9.28 38.1909 9.472 38.7109 9.856C39.2389 10.232 39.5949 10.772 39.7789 11.476H38.3029C38.1829 11.148 37.9909 10.892 37.7269 10.708C37.4629 10.524 37.1309 10.432 36.7309 10.432C36.1709 10.432 35.7229 10.632 35.3869 11.032C35.0589 11.424 34.8949 11.976 34.8949 12.688C34.8949 13.4 35.0589 13.956 35.3869 14.356C35.7229 14.756 36.1709 14.956 36.7309 14.956C37.5229 14.956 38.0469 14.608 38.3029 13.912H39.7789C39.5869 14.584 39.2269 15.12 38.6989 15.52C38.1709 15.912 37.5149 16.108 36.7309 16.108C36.0989 16.108 35.5389 15.968 35.0509 15.688C34.5629 15.4 34.1789 15 33.8989 14.488C33.6269 13.968 33.4909 13.368 33.4909 12.688ZM42.7382 10.504V14.164C42.7382 14.412 42.7942 14.592 42.9062 14.704C43.0262 14.808 43.2262 14.86 43.5062 14.86H44.3462V16H43.2662C42.6502 16 42.1782 15.856 41.8502 15.568C41.5222 15.28 41.3582 14.812 41.3582 14.164V10.504H40.5782V9.388H41.3582V7.744H42.7382V9.388H44.3462V10.504H42.7382ZM46.303 8.512C46.055 8.512 45.847 8.428 45.679 8.26C45.511 8.092 45.427 7.884 45.427 7.636C45.427 7.388 45.511 7.18 45.679 7.012C45.847 6.844 46.055 6.76 46.303 6.76C46.543 6.76 46.747 6.844 46.915 7.012C47.083 7.18 47.167 7.388 47.167 7.636C47.167 7.884 47.083 8.092 46.915 8.26C46.747 8.428 46.543 8.512 46.303 8.512ZM46.975 9.388V16H45.607V9.388H46.975ZM51.3271 14.776L53.1991 9.388H54.6511L52.1311 16H50.4991L47.9911 9.388H49.4551L51.3271 14.776ZM55.2292 12.664C55.2292 12 55.3652 11.412 55.6372 10.9C55.9172 10.388 56.2932 9.992 56.7652 9.712C57.2452 9.424 57.7732 9.28 58.3492 9.28C58.8692 9.28 59.3212 9.384 59.7052 9.592C60.0972 9.792 60.4092 10.044 60.6412 10.348V9.388H62.0212V16H60.6412V15.016C60.4092 15.328 60.0932 15.588 59.6932 15.796C59.2932 16.004 58.8372 16.108 58.3252 16.108C57.7572 16.108 57.2372 15.964 56.7652 15.676C56.2932 15.38 55.9172 14.972 55.6372 14.452C55.3652 13.924 55.2292 13.328 55.2292 12.664ZM60.6412 12.688C60.6412 12.232 60.5452 11.836 60.3532 11.5C60.1692 11.164 59.9252 10.908 59.6212 10.732C59.3172 10.556 58.9892 10.468 58.6372 10.468C58.2852 10.468 57.9572 10.556 57.6532 10.732C57.3492 10.9 57.1012 11.152 56.9092 11.488C56.7252 11.816 56.6332 12.208 56.6332 12.664C56.6332 13.12 56.7252 13.52 56.9092 13.864C57.1012 14.208 57.3492 14.472 57.6532 14.656C57.9652 14.832 58.2932 14.92 58.6372 14.92C58.9892 14.92 59.3172 14.832 59.6212 14.656C59.9252 14.48 60.1692 14.224 60.3532 13.888C60.5452 13.544 60.6412 13.144 60.6412 12.688ZM65.414 10.504V14.164C65.414 14.412 65.47 14.592 65.582 14.704C65.702 14.808 65.902 14.86 66.182 14.86H67.022V16H65.942C65.326 16 64.854 15.856 64.526 15.568C64.198 15.28 64.034 14.812 64.034 14.164V10.504H63.254V9.388H64.034V7.744H65.414V9.388H67.022V10.504H65.414ZM74.3428 12.532C74.3428 12.78 74.3268 13.004 74.2948 13.204H69.2428C69.2828 13.732 69.4788 14.156 69.8308 14.476C70.1828 14.796 70.6148 14.956 71.1268 14.956C71.8628 14.956 72.3828 14.648 72.6868 14.032H74.1628C73.9628 14.64 73.5988 15.14 73.0708 15.532C72.5508 15.916 71.9028 16.108 71.1268 16.108C70.4948 16.108 69.9268 15.968 69.4228 15.688C68.9268 15.4 68.5348 15 68.2468 14.488C67.9668 13.968 67.8268 13.368 67.8268 12.688C67.8268 12.008 67.9628 11.412 68.2348 10.9C68.5148 10.38 68.9028 9.98 69.3988 9.7C69.9028 9.42 70.4788 9.28 71.1268 9.28C71.7508 9.28 72.3068 9.416 72.7948 9.688C73.2828 9.96 73.6628 10.344 73.9348 10.84C74.2068 11.328 74.3428 11.892 74.3428 12.532ZM72.9148 12.1C72.9068 11.596 72.7268 11.192 72.3748 10.888C72.0228 10.584 71.5868 10.432 71.0668 10.432C70.5948 10.432 70.1908 10.584 69.8548 10.888C69.5188 11.184 69.3188 11.588 69.2548 12.1H72.9148ZM75.2331 12.664C75.2331 12 75.3691 11.412 75.6411 10.9C75.9211 10.388 76.2971 9.992 76.7691 9.712C77.2491 9.424 77.7811 9.28 78.3651 9.28C78.7971 9.28 79.2211 9.376 79.6371 9.568C80.0611 9.752 80.3971 10 80.6451 10.312V7.12H82.0251V16H80.6451V15.004C80.4211 15.324 80.1091 15.588 79.7091 15.796C79.3171 16.004 78.8651 16.108 78.3531 16.108C77.7771 16.108 77.2491 15.964 76.7691 15.676C76.2971 15.38 75.9211 14.972 75.6411 14.452C75.3691 13.924 75.2331 13.328 75.2331 12.664ZM80.6451 12.688C80.6451 12.232 80.5491 11.836 80.3571 11.5C80.1731 11.164 79.9291 10.908 79.6251 10.732C79.3211 10.556 78.9931 10.468 78.6411 10.468C78.2891 10.468 77.9611 10.556 77.6571 10.732C77.3531 10.9 77.1051 11.152 76.9131 11.488C76.7291 11.816 76.6371 12.208 76.6371 12.664C76.6371 13.12 76.7291 13.52 76.9131 13.864C77.1051 14.208 77.3531 14.472 77.6571 14.656C77.9691 14.832 78.2971 14.92 78.6411 14.92C78.9931 14.92 79.3211 14.832 79.6251 14.656C79.9291 14.48 80.1731 14.224 80.3571 13.888C80.5491 13.544 80.6451 13.144 80.6451 12.688Z" fill="#F1583E"/>
</svg>
