<svg width="22" height="19" viewBox="0 0 22 19" fill="none" xmlns="http://www.w3.org/2000/svg">
<path d="M13.8766 5.62484C14.2829 6.03134 14.597 6.52526 14.8188 7.10659C15.0407 7.68809 15.1246 8.27176 15.0706 8.85759C15.0706 9.04993 15.0014 9.21276 14.8631 9.34609C14.7246 9.47943 14.5592 9.54609 14.3668 9.54609C14.1745 9.54609 14.0117 9.47943 13.8783 9.34609C13.745 9.21276 13.6783 9.04993 13.6783 8.85759C13.7425 8.41793 13.7063 8.00126 13.5698 7.60759C13.4333 7.21409 13.2234 6.87568 12.9401 6.59234C12.6568 6.30901 12.3151 6.09393 11.9151 5.94709C11.5151 5.80026 11.0933 5.76209 10.6496 5.83259C10.4573 5.83909 10.2913 5.77468 10.1516 5.63934C10.0118 5.50418 9.93867 5.34043 9.93234 5.14809C9.92584 4.95576 9.98767 4.78968 10.1178 4.64984C10.248 4.51018 10.4093 4.43718 10.6016 4.43084C11.1836 4.36418 11.7685 4.44009 12.3563 4.65859C12.9442 4.87726 13.4509 5.19934 13.8766 5.62484ZM10.9996 3.00184C10.6444 3.00184 10.296 3.01918 9.95434 3.05384C9.61267 3.08834 9.27259 3.14534 8.93409 3.22484C8.72125 3.26851 8.52959 3.23809 8.35909 3.13359C8.18859 3.02909 8.07134 2.87876 8.00734 2.68259C7.94317 2.48009 7.96434 2.28751 8.07084 2.10484C8.17717 1.92218 8.33159 1.80901 8.53409 1.76534C8.93675 1.66918 9.3435 1.60126 9.75434 1.56159C10.1653 1.52176 10.5804 1.50184 10.9996 1.50184C13.1483 1.50184 15.122 2.06018 16.9208 3.17684C18.7195 4.29351 20.1028 5.80443 21.0706 7.70959C21.1373 7.83643 21.1857 7.96426 21.2158 8.09309C21.246 8.22193 21.2611 8.35818 21.2611 8.50184C21.2611 8.64551 21.2486 8.78176 21.2236 8.91059C21.1986 9.03943 21.1528 9.16726 21.0861 9.29409C20.7798 9.93509 20.4073 10.5328 19.9688 11.0873C19.5303 11.6418 19.0476 12.1512 18.5206 12.6153C18.3656 12.7538 18.1884 12.8112 17.9891 12.7873C17.7896 12.7637 17.6258 12.664 17.4976 12.4883C17.3694 12.3127 17.3163 12.1243 17.3381 11.9231C17.3599 11.7218 17.4483 11.5518 17.6033 11.4133C18.0547 11.0043 18.4663 10.5573 18.8381 10.0721C19.2099 9.58676 19.5304 9.06334 19.7996 8.50184C18.9663 6.81851 17.7621 5.48101 16.1871 4.48934C14.6121 3.49768 12.8829 3.00184 10.9996 3.00184ZM10.9996 15.5018C8.89442 15.5018 6.96492 14.9393 5.21109 13.8143C3.45725 12.6893 2.06309 11.2076 1.02859 9.36909C0.945253 9.24226 0.884336 9.10443 0.845836 8.95559C0.807336 8.80693 0.788086 8.65568 0.788086 8.50184C0.788086 8.34801 0.804753 8.19926 0.838086 8.05559C0.871419 7.91209 0.929753 7.77176 1.01309 7.63459C1.38492 6.95509 1.80609 6.30793 2.27659 5.69309C2.74709 5.07843 3.28809 4.52751 3.89959 4.04034L1.64184 1.76709C1.5035 1.61843 1.43525 1.44184 1.43709 1.23734C1.43909 1.03284 1.5125 0.858177 1.65734 0.713344C1.80217 0.56851 1.97784 0.496094 2.18434 0.496094C2.39067 0.496094 2.56625 0.56851 2.71109 0.713344L19.2881 17.2903C19.4266 17.4288 19.5 17.6003 19.5083 17.8046C19.5167 18.0091 19.4433 18.1889 19.2881 18.3441C19.1433 18.4889 18.9676 18.5613 18.7611 18.5613C18.5548 18.5613 18.3792 18.4889 18.2343 18.3441L14.7151 14.8556C14.1253 15.0838 13.5191 15.2485 12.8966 15.3498C12.2743 15.4512 11.6419 15.5018 10.9996 15.5018ZM4.95359 5.09409C4.36759 5.54676 3.84092 6.05859 3.37359 6.62959C2.90625 7.20076 2.51492 7.82484 2.19959 8.50184C3.03292 10.1852 4.23709 11.5227 5.81209 12.5143C7.38709 13.506 9.11625 14.0018 10.9996 14.0018C11.4291 14.0018 11.8518 13.973 12.2678 13.9153C12.6838 13.8577 13.097 13.7686 13.5073 13.6481L12.2418 12.3518C12.0393 12.4403 11.8371 12.5003 11.6351 12.5316C11.4333 12.5631 11.2214 12.5788 10.9996 12.5788C9.86492 12.5788 8.90175 12.183 8.11009 11.3913C7.31842 10.5997 6.92259 9.63651 6.92259 8.50184C6.92259 8.28001 6.93992 8.06818 6.97459 7.86634C7.00925 7.66434 7.06759 7.46209 7.14959 7.25959L4.95359 5.09409Z" fill="#D9D9D9"/>
</svg>
