<svg width="62" height="42" viewBox="0 0 62 42" fill="none" xmlns="http://www.w3.org/2000/svg">
<path d="M31.1209 38.8936C31.4355 38.7336 39.6183 35.136 42.2148 32.9772C44.89 30.7387 46.3061 27.5406 46.3061 23.7032V5.71458L46.0701 5.63464C39.5397 2.03691 31.4355 2.27676 31.0421 2.27676C30.7275 2.27676 22.6234 2.03691 16.0929 5.63464L15.9355 5.71458V23.7831C15.9355 27.6207 17.3518 30.8186 20.0269 33.0573C22.6234 35.2159 30.8061 38.8135 31.1209 38.8936Z" fill="#341B14"/>
<path fill-rule="evenodd" clip-rule="evenodd" d="M19.7911 33.2976C22.4663 35.4562 31.1211 39.2939 31.1211 39.2939C31.1211 39.2939 39.7759 35.4562 42.451 33.2178C45.2835 30.8191 46.6211 27.5412 46.6211 23.7837V5.15552C39.7759 1.39791 31.1211 1.7177 31.1211 1.7177C31.1211 1.7177 22.4663 1.39791 15.6211 5.15552V23.8636C15.6211 27.6213 16.9587 30.8992 19.7911 33.2976ZM20.5781 32.2581C18.139 30.2595 16.8801 27.3812 16.8801 23.8635V13.0704C25.3777 5.07548 36.2354 4.59578 45.3623 5.47521V23.8635C45.3623 27.3014 44.1036 30.2595 41.6645 32.2581C39.5401 34.017 32.9309 37.0552 31.1213 37.8546C29.3116 37.0552 22.7811 34.0971 20.5781 32.2581Z" fill="#FFB406"/>
<path fill-rule="evenodd" clip-rule="evenodd" d="M41.5848 23.3047C41.5062 22.4253 41.034 21.9456 39.8538 21.226C37.6509 19.9469 37.1787 18.8276 37.1001 17.3085C37.1001 15.07 38.9885 13.7908 40.798 13.7108C42.293 13.6309 43.3157 14.1905 43.7879 14.5903V16.9888C43.2371 16.4291 42.293 15.8695 41.3488 15.8695C40.6406 15.8695 39.7752 16.2692 39.7752 17.2286C39.7752 18.1088 40.4375 18.5179 41.3368 19.0734C41.4178 19.1234 41.5004 19.1746 41.5848 19.2273C43.8665 20.5864 44.3387 21.8656 44.2599 23.4646C44.2599 25.2236 43.0012 27.1424 40.326 27.1424C39.2244 27.1424 38.2017 26.7424 37.3361 26.2628V23.7045C38.0443 24.3441 39.067 24.8239 39.9326 24.8239C40.9554 24.8239 41.5848 24.2641 41.5848 23.3047ZM31.8284 27.1422C31.1988 27.1422 30.8054 27.0621 30.5694 26.9822V32.8185H27.8943V14.75C28.9173 14.1104 30.0975 13.7906 31.5924 13.7906C34.8181 13.7906 36.6279 16.269 36.6279 20.3464C36.6279 24.3439 34.8969 27.1422 31.8284 27.1422ZM30.6896 16.0673C30.9256 15.9836 31.2478 15.8694 31.5139 15.8694C33.0874 15.8694 33.7168 17.1486 33.7168 20.2666C33.7168 23.3047 32.93 24.7438 31.3564 24.7438C30.9631 24.7438 30.6483 24.6637 30.4908 24.5838V16.1092H30.5697C30.606 16.0969 30.6463 16.0826 30.6893 16.0673L30.6896 16.0673ZM26.3996 26.0228C25.3768 26.7424 23.9604 27.1422 22.3082 27.1422C19.633 27.1422 18.2168 25.6231 18.2168 22.665V13.9506H20.9706V22.8249C20.9706 23.5445 21.128 24.7438 22.3868 24.7438C22.9376 24.7438 23.331 24.6637 23.6457 24.4239V13.9506H26.3996V26.0228ZM40.6403 37.9354V39.7741H40.9552V39.0548H41.0337L41.5059 39.7741H41.8993C41.8993 39.7741 41.4271 39.0548 41.3485 38.9747C41.5845 38.8948 41.7419 38.7349 41.7419 38.4951C41.7419 38.2551 41.5845 37.9354 41.1126 37.9354H40.6403ZM41.4271 38.4153C41.4271 38.3352 41.3485 38.1755 41.1126 38.1755H40.9552V38.7349H41.0337C41.3485 38.7349 41.4271 38.5752 41.4271 38.4153Z" fill="#FFB406"/>
<path fill-rule="evenodd" clip-rule="evenodd" d="M39.6973 38.816C39.6973 37.9364 40.4052 37.2969 41.192 37.2969C41.979 37.2969 42.687 38.0165 42.687 38.816C42.687 39.6955 41.979 40.335 41.192 40.335C40.3266 40.335 39.6973 39.6154 39.6973 38.816ZM41.1922 40.0149C41.8216 40.0149 42.3724 39.4552 42.3724 38.8157C42.3724 38.1762 41.9002 37.6165 41.1922 37.6165C40.5626 37.6165 40.0118 38.1762 40.0118 38.8157C40.0118 39.4552 40.5626 40.0149 41.1922 40.0149Z" fill="#FFB406"/>
</svg>
